# xmcd CD database file
#
# Track frame offsets:
#	150
#	17615
#	35730
#	50867
#	74647
#	94835
#	107922
#	130432
#	147067
#	163735
#	176932
#	191650
#	210942
#	233322
#	235722
#	247070
#
# Disc length: 3462 seconds
#
# Revision: 0
# Processed by: cddbd v1.4PL0 Copyright (c) Steve Scherf et al.
# Submitted via: CDex 1.40Release
#
DISCID=e90d8410
DTITLE=Tom Skinner - Times have Changed
DYEAR=1996
DGENRE=Country
TTITLE0=Maybe It's Love
TTITLE1=Water Your Own yard
TTITLE2=Long Way To Nowhere
TTITLE3=Used To Be
TTITLE4=A Little Rain Will Do
TTITLE5=Just Tomorrow
TTITLE6=Rosalie
TTITLE7=Times Have Changed
TTITLE8=Years in The Makin'
TTITLE9=One of These Days
TTITLE10=Goin' Down By The River
TTITLE11=Life Was Good
TTITLE12=Mama Must Be Prayin'
TTITLE13=Blank
TTITLE14=Bonus 1
TTITLE15=Bonus 2
EXTD=YEAR: 1996 ID3G: 2
EXTT0=
EXTT1=
EXTT2=
EXTT3=
EXTT4=
EXTT5=
EXTT6=
EXTT7=
EXTT8=
EXTT9=
EXTT10=
EXTT11=
EXTT12=
EXTT13=
EXTT14=
EXTT15=
PLAYORDER=
